<?xml version="1.0" encoding="UTF-8"?>
<svg id="Camada_1" data-name="Camada 1" xmlns="http://www.w3.org/2000/svg" viewBox="0 0 1024 476.63">
  <defs>
    <style>
      .cls-1 {
        fill: #fff;
      }

      .cls-2 {
        fill: #cca859;
      }

      .cls-3 {
        fill: #a58950;
      }
    </style>
  </defs>
  <path class="cls-1" d="M838.76,316.66c.36.23.17,3.22,4.78,4.74,11.64,3.84,20.85-4.68,18.21-16.74-12.08,11.59-31.61,6.71-37.86-8.63-10.66-26.19,11.65-56.22,37.86-36.37v-5h16.01v56.5c0,4.63-1.03,7.89-1.72,9.39-9.02,19.75-49.36,20.34-53.28-3.89h16ZM847.52,265.88c-19.26,2.81-12.32,43.93,8.59,31.63,11.81-6.95,7.88-34.03-8.59-31.63Z"/>
  <path class="cls-1" d="M813.76,233.66v78l-14.05-.47-.96-6.53c-14.93,16.18-38.88,5.08-40.98-15.51-1.98-19.44,6.21-37.92,28.49-35.49,5.93.65,8.31,3.38,12.5,7v-27h15ZM783.51,265.86c-15.01,2.5-14.51,31.09-1.02,33.55,23.23,4.23,21.77-37.01,1.02-33.55Z"/>
  <path class="cls-1" d="M570.56,206.66h-16v-6c-7.53,6.21-14.81,7.97-24.54,7.04-14.52-1.38-20.86-17.51-13.3-29.38,8.04-12.63,35.81-7.68,37.73-13.3,4.06-11.9-23.1-15.39-22.89-1.36h-16c.31-23.59,40.25-27.97,50.83-12.33,1.01,1.5,4.17,5.74,4.17,14.05v41.28ZM554.56,176.66c-5.77,3.11-22.42.46-23.97,8.52-3.12,16.19,21.37,13.52,23.75,1.74.67-3.32.03-6.91.22-10.27Z"/>
  <path class="cls-1" d="M506.56,186.66c-3.94,19.55-27.93,26.11-44.68,18.18-25.06-11.85-21.56-57.73,7.44-61.92,25.13-3.63,39.04,11.24,38.24,35.74h-45c-1.5,13.32,13.41,22.66,24.03,13.53,1.3-1.12,4.11-5.53,4.47-5.53h15.5ZM462.56,168.66h28c-1.33-19.06-26.99-19.16-28,0Z"/>
  <path class="cls-1" d="M602.3,142.89c17.06-2.86,32.74,3.14,38.3,20.23,8.64,26.54-10.37,50.03-38.29,44.28-31.97-6.58-31-59.32-.02-64.51ZM607.3,155.9c-17.07,2.77-17.53,42.53,6.7,38.69,16.58-2.63,17.48-42.61-6.7-38.69Z"/>
  <path class="cls-1" d="M436.76,311.66h-15v-6c-9.44,10.85-33.77,9.71-35.91-6.58-1.24-9.43,2.59-17.04,11.89-19.93,4.62-1.43,22.62-1.28,23.88-5.16,3.69-11.34-19.97-13.25-19.87-1.32h-14c-1.18-21.53,35.67-25.02,45.43-10.93.71,1.03,3.57,4.97,3.57,10.93v39ZM419.42,298.31c3.62-3.66,2.1-8.98,2.33-13.65-4.5,2.96-18.97.65-20.8,6.7-3.57,11.8,12.43,13.05,18.46,6.96Z"/>
  <path class="cls-1" d="M938.76,286.66h-40c-1.34,10.62,10.03,18.36,19.35,12.85,3.25-1.92,4.27-5.85,4.65-5.85h15c-3.55,18.77-27.21,23.81-42.14,14.64-19.66-12.07-15.99-49.79,8.1-54.19,22.87-4.18,36.08,10.46,35.05,32.55ZM922.76,276.66c.07-15.86-23.12-15.44-24.02-.51-.19,3.15-.48.51-.02.51h24.04Z"/>
  <polygon class="cls-1" points="401.56 120.66 401.56 191.66 440.56 191.66 440.56 206.66 384.56 206.66 384.56 120.66 401.56 120.66"/>
  <path class="cls-1" d="M522.76,286.66h-40c-.04,10.59,10.07,18.51,19.71,13.21,5.29-2.91,5.36-6.21,5.79-6.21h14.5c-9.77,29.5-53.55,23.56-55.04-8.45-2.05-44.12,60.21-41.32,55.04,1.45ZM507.76,276.66c-2.58-16.05-22.16-16.02-25,0h25Z"/>
  <path class="cls-1" d="M580.76,311.66h-15v-38.5c0-5.9-12.09-7.02-19.56.44-3.21,3.21-2.47,6.56-2.47,38.06h-14.97v-57h14.97v6c11.32-12.09,34.96-8.86,37.03,9.5v41.5Z"/>
  <polygon class="cls-1" points="391.94 247.66 369.76 247.66 370.76 310.66 354.76 310.66 354.76 247.66 332.76 247.66 332.76 233.66 391.94 233.66 391.94 247.66"/>
  <path class="cls-1" d="M609.76,239.66v14.99h11.02v12.01s-12.02,0-12.02,0v29.44c0,6.41,13,4.53,13,4.53v11.02c-15.34,0-27,.15-27-9.49v-35.5h-8.01s0-12.01,0-12.01h8.01v-14.99h15Z"/>
  <rect class="cls-1" x="445.76" y="233.66" width="15" height="78"/>
  <path class="cls-1" d="M729.76,253.66v15c-4.55-1.7-19-.59-19,7.5v35.5h-15v-57h14l.5,8c4.35-7.67,10.95-9.92,19.5-9Z"/>
  <polygon class="cls-1" points="750.76 311.66 734.76 311.66 734.76 254.66 749.75 254.66 750.76 311.66"/>
  <rect class="cls-1" x="734.76" y="233.66" width="15" height="14"/>
  <path class="cls-1" d="M677.76,271.64c12.56-12.88,9.9-30.98-5.52-36.33-10.11-3.51-43.48-1.65-43.48-1.65v77s39.73,4.61,51.5-4c11.88-8.7,10.91-28.42-2.5-35.01ZM663.26,298.66h-19.5c.6-.6,1-1.29,1-1.5v-19.5h19.5c10.8,0,10.8,21-1,21ZM663.26,265.66h-19.5c.6-.6,1-1.29,1-1.5v-17.5h19.5c10.8,0,10.8,19-1,19Z"/>
  <g>
    <path class="cls-1" d="M117.17,381.1l5.15,1.3c-1.08,4.23-3.02,7.46-5.83,9.68-2.81,2.22-6.24,3.33-10.29,3.33s-7.61-.85-10.24-2.56c-2.63-1.71-4.63-4.18-6-7.42-1.37-3.24-2.06-6.72-2.06-10.44,0-4.06.77-7.59,2.32-10.61,1.55-3.02,3.75-5.31,6.61-6.88s6.01-2.35,9.44-2.35c3.9,0,7.17.99,9.83,2.97,2.66,1.98,4.51,4.77,5.55,8.37l-5.07,1.2c-.9-2.83-2.21-4.9-3.93-6.19-1.72-1.29-3.88-1.94-6.48-1.94-2.99,0-5.49.72-7.5,2.15-2.01,1.43-3.42,3.36-4.24,5.78-.81,2.42-1.22,4.91-1.22,7.48,0,3.31.48,6.2,1.45,8.67.96,2.47,2.47,4.32,4.5,5.54,2.04,1.22,4.24,1.83,6.61,1.83,2.89,0,5.33-.83,7.33-2.5,2-1.66,3.36-4.13,4.06-7.41Z"/>
    <path class="cls-1" d="M128.62,380.65c0-5.22,1.45-9.09,4.36-11.61,2.43-2.09,5.38-3.13,8.87-3.13,3.88,0,7.05,1.27,9.51,3.81,2.46,2.54,3.69,6.05,3.69,10.53,0,3.63-.54,6.49-1.63,8.57s-2.67,3.7-4.75,4.85c-2.08,1.15-4.35,1.73-6.81,1.73-3.95,0-7.14-1.27-9.58-3.8-2.44-2.53-3.65-6.18-3.65-10.94ZM133.53,380.65c0,3.61.79,6.32,2.36,8.12,1.58,1.8,3.56,2.7,5.95,2.7s4.35-.9,5.92-2.71c1.58-1.81,2.36-4.56,2.36-8.26,0-3.49-.79-6.13-2.38-7.93-1.58-1.8-3.56-2.7-5.91-2.7s-4.37.89-5.95,2.68c-1.58,1.79-2.36,4.49-2.36,8.1Z"/>
    <path class="cls-1" d="M162.99,394.75v-28.21h4.3v4.01c2.07-3.1,5.06-4.65,8.98-4.65,1.7,0,3.26.31,4.69.92,1.43.61,2.49,1.41,3.2,2.4.71.99,1.2,2.17,1.49,3.53.18.89.27,2.43.27,4.65v17.35h-4.78v-17.16c0-1.95-.19-3.4-.56-4.37s-1.03-1.74-1.98-2.31c-.95-.58-2.06-.86-3.33-.86-2.04,0-3.79.65-5.27,1.94-1.48,1.29-2.22,3.75-2.22,7.36v15.41h-4.78Z"/>
    <path class="cls-1" d="M195.58,394.75v-28.21h4.3v4.01c2.07-3.1,5.06-4.65,8.98-4.65,1.7,0,3.26.31,4.69.92,1.43.61,2.49,1.41,3.2,2.4.71.99,1.2,2.17,1.49,3.53.18.89.27,2.43.27,4.65v17.35h-4.78v-17.16c0-1.95-.19-3.4-.56-4.37s-1.03-1.74-1.98-2.31c-.95-.58-2.06-.86-3.33-.86-2.04,0-3.79.65-5.27,1.94-1.48,1.29-2.22,3.75-2.22,7.36v15.41h-4.78Z"/>
    <path class="cls-1" d="M247.49,385.67l4.94.61c-.78,2.89-2.22,5.13-4.33,6.72s-4.8,2.39-8.08,2.39c-4.13,0-7.4-1.27-9.81-3.81-2.42-2.54-3.63-6.11-3.63-10.69s1.22-8.43,3.67-11.05c2.44-2.62,5.61-3.93,9.51-3.93s6.85,1.28,9.24,3.85c2.39,2.57,3.59,6.18,3.59,10.84,0,.28,0,.71-.03,1.28h-21.04c.18,3.1,1.05,5.47,2.63,7.12,1.58,1.65,3.54,2.47,5.9,2.47,1.75,0,3.25-.46,4.49-1.38s2.22-2.39,2.95-4.41ZM231.79,377.94h15.75c-.21-2.37-.81-4.15-1.81-5.34-1.52-1.84-3.5-2.76-5.92-2.76-2.2,0-4.04.73-5.54,2.2-1.5,1.47-2.32,3.44-2.48,5.9Z"/>
    <path class="cls-1" d="M279.18,384.42l4.7.61c-.51,3.24-1.83,5.78-3.94,7.61-2.12,1.83-4.71,2.75-7.8,2.75-3.86,0-6.96-1.26-9.31-3.79-2.35-2.52-3.52-6.14-3.52-10.85,0-3.04.5-5.71,1.51-8s2.55-4,4.61-5.14c2.06-1.14,4.31-1.71,6.73-1.71,3.06,0,5.57.78,7.52,2.32,1.95,1.55,3.2,3.75,3.75,6.6l-4.65.72c-.44-1.89-1.23-3.32-2.35-4.28-1.12-.96-2.48-1.43-4.08-1.43-2.41,0-4.37.86-5.87,2.59s-2.26,4.46-2.26,8.19.73,6.54,2.18,8.26,3.35,2.58,5.68,2.58c1.88,0,3.44-.58,4.7-1.73,1.26-1.15,2.05-2.92,2.39-5.31Z"/>
    <path class="cls-1" d="M300.75,390.48l.69,4.22c-1.35.28-2.55.42-3.61.42-1.74,0-3.08-.28-4.04-.82-.96-.55-1.63-1.27-2.02-2.17s-.58-2.78-.58-5.64v-16.23h-3.51v-3.72h3.51v-6.99l4.75-2.87v9.86h4.81v3.72h-4.81v16.5c0,1.36.08,2.24.25,2.63.17.39.44.7.82.93.38.23.92.35,1.63.35.53,0,1.23-.06,2.1-.19Z"/>
    <path class="cls-1" d="M307.79,361.31v-5.5h4.78v5.5h-4.78ZM307.79,394.75v-28.21h4.78v28.21h-4.78Z"/>
    <path class="cls-1" d="M322.19,394.75v-28.21h4.3v4.01c2.07-3.1,5.06-4.65,8.98-4.65,1.7,0,3.26.31,4.69.92,1.43.61,2.49,1.41,3.2,2.4.71.99,1.2,2.17,1.49,3.53.18.89.27,2.43.27,4.65v17.35h-4.78v-17.16c0-1.95-.19-3.4-.56-4.37s-1.03-1.74-1.98-2.31c-.95-.58-2.06-.86-3.33-.86-2.04,0-3.79.65-5.27,1.94-1.48,1.29-2.22,3.75-2.22,7.36v15.41h-4.78Z"/>
    <path class="cls-1" d="M353.91,397.09l4.65.69c.19,1.43.73,2.48,1.62,3.13,1.19.88,2.81,1.33,4.86,1.33,2.21,0,3.92-.44,5.13-1.33,1.2-.89,2.02-2.12,2.44-3.72.25-.97.36-3.02.35-6.14-2.09,2.46-4.69,3.69-7.81,3.69-3.88,0-6.88-1.4-9-4.2-2.12-2.8-3.19-6.15-3.19-10.07,0-2.69.49-5.17,1.46-7.45.97-2.27,2.39-4.03,4.24-5.27,1.85-1.24,4.02-1.86,6.52-1.86,3.33,0,6.07,1.35,8.23,4.04v-3.4h4.41v24.38c0,4.39-.45,7.5-1.34,9.34-.89,1.83-2.31,3.28-4.25,4.34-1.94,1.06-4.33,1.59-7.16,1.59-3.37,0-6.08-.76-8.16-2.27-2.07-1.51-3.07-3.79-3-6.84ZM357.87,380.14c0,3.7.73,6.4,2.2,8.1,1.47,1.7,3.31,2.55,5.53,2.55s4.04-.85,5.52-2.54c1.49-1.69,2.23-4.34,2.23-7.96s-.77-6.06-2.3-7.81-3.38-2.63-5.54-2.63-3.93.86-5.42,2.59c-1.49,1.73-2.23,4.29-2.23,7.69Z"/>
    <path class="cls-1" d="M415.28,390.48l.69,4.22c-1.35.28-2.55.42-3.61.42-1.74,0-3.08-.28-4.04-.82-.96-.55-1.63-1.27-2.02-2.17s-.58-2.78-.58-5.64v-16.23h-3.51v-3.72h3.51v-6.99l4.75-2.87v9.86h4.81v3.72h-4.81v16.5c0,1.36.08,2.24.25,2.63.17.39.44.7.82.93.38.23.92.35,1.63.35.53,0,1.23-.06,2.1-.19Z"/>
    <path class="cls-1" d="M440.7,391.27c-1.77,1.5-3.48,2.57-5.11,3.19-1.64.62-3.4.93-5.27.93-3.1,0-5.48-.76-7.15-2.27-1.66-1.51-2.5-3.45-2.5-5.8,0-1.38.31-2.64.94-3.79.63-1.14,1.45-2.06,2.47-2.75,1.02-.69,2.17-1.21,3.44-1.57.94-.25,2.35-.49,4.25-.72,3.86-.46,6.7-1.01,8.53-1.65.02-.66.03-1.07.03-1.25,0-1.95-.45-3.32-1.35-4.12-1.22-1.08-3.04-1.62-5.45-1.62-2.25,0-3.91.39-4.98,1.18-1.07.79-1.86,2.18-2.38,4.18l-4.68-.64c.43-2,1.12-3.62,2.1-4.85.97-1.23,2.38-2.18,4.22-2.84,1.84-.66,3.98-1,6.4-1s4.37.28,5.87.85c1.5.57,2.61,1.28,3.32,2.14.71.86,1.2,1.94,1.49,3.25.16.82.24,2.28.24,4.41v6.38c0,4.45.1,7.26.31,8.43.2,1.18.61,2.31,1.21,3.39h-4.99c-.5-.99-.81-2.15-.96-3.48ZM440.3,380.59c-1.74.71-4.34,1.31-7.81,1.81-1.97.28-3.36.6-4.17.96s-1.44.87-1.89,1.55c-.44.68-.66,1.44-.66,2.27,0,1.27.48,2.34,1.45,3.19.96.85,2.38,1.28,4.24,1.28s3.48-.4,4.91-1.21,2.49-1.91,3.16-3.31c.51-1.08.77-2.67.77-4.78v-1.75Z"/>
    <path class="cls-1" d="M454.78,394.75v-38.94h4.78v38.94h-4.78Z"/>
    <path class="cls-1" d="M488.62,385.67l4.94.61c-.78,2.89-2.22,5.13-4.33,6.72s-4.8,2.39-8.08,2.39c-4.13,0-7.4-1.27-9.81-3.81-2.42-2.54-3.63-6.11-3.63-10.69s1.22-8.43,3.67-11.05c2.44-2.62,5.61-3.93,9.51-3.93s6.85,1.28,9.24,3.85c2.39,2.57,3.59,6.18,3.59,10.84,0,.28,0,.71-.03,1.28h-21.04c.18,3.1,1.05,5.47,2.63,7.12,1.58,1.65,3.54,2.47,5.9,2.47,1.75,0,3.25-.46,4.49-1.38s2.22-2.39,2.95-4.41ZM472.92,377.94h15.75c-.21-2.37-.81-4.15-1.81-5.34-1.52-1.84-3.5-2.76-5.92-2.76-2.2,0-4.04.73-5.54,2.2-1.5,1.47-2.32,3.44-2.48,5.9Z"/>
    <path class="cls-1" d="M501.9,394.75v-28.21h4.3v4.01c2.07-3.1,5.06-4.65,8.98-4.65,1.7,0,3.26.31,4.69.92,1.43.61,2.49,1.41,3.2,2.4.71.99,1.2,2.17,1.49,3.53.18.89.27,2.43.27,4.65v17.35h-4.78v-17.16c0-1.95-.19-3.4-.56-4.37s-1.03-1.74-1.98-2.31c-.95-.58-2.06-.86-3.33-.86-2.04,0-3.79.65-5.27,1.94-1.48,1.29-2.22,3.75-2.22,7.36v15.41h-4.78Z"/>
    <path class="cls-1" d="M544.94,390.48l.69,4.22c-1.35.28-2.55.42-3.61.42-1.74,0-3.08-.28-4.04-.82-.96-.55-1.63-1.27-2.02-2.17s-.58-2.78-.58-5.64v-16.23h-3.51v-3.72h3.51v-6.99l4.76-2.87v9.86h4.81v3.72h-4.81v16.5c0,1.36.08,2.24.25,2.63.17.39.44.7.82.93.38.23.93.35,1.63.35.53,0,1.23-.06,2.1-.19Z"/>
    <path class="cls-1" d="M579.85,390.48l.69,4.22c-1.35.28-2.55.42-3.61.42-1.74,0-3.08-.28-4.04-.82-.96-.55-1.63-1.27-2.02-2.17s-.58-2.78-.58-5.64v-16.23h-3.51v-3.72h3.51v-6.99l4.75-2.87v9.86h4.81v3.72h-4.81v16.5c0,1.36.08,2.24.25,2.63.17.39.44.7.82.93.38.23.93.35,1.63.35.53,0,1.23-.06,2.1-.19Z"/>
    <path class="cls-1" d="M585.08,380.65c0-5.22,1.45-9.09,4.36-11.61,2.43-2.09,5.38-3.13,8.87-3.13,3.88,0,7.05,1.27,9.51,3.81,2.46,2.54,3.69,6.05,3.69,10.53,0,3.63-.54,6.49-1.63,8.57-1.09,2.08-2.67,3.7-4.75,4.85-2.08,1.15-4.35,1.73-6.81,1.73-3.95,0-7.14-1.27-9.58-3.8-2.44-2.53-3.65-6.18-3.65-10.94ZM590,380.65c0,3.61.79,6.32,2.36,8.12,1.58,1.8,3.56,2.7,5.95,2.7s4.35-.9,5.92-2.71c1.58-1.81,2.36-4.56,2.36-8.26,0-3.49-.79-6.13-2.38-7.93-1.58-1.8-3.56-2.7-5.91-2.7s-4.38.89-5.95,2.68c-1.58,1.79-2.36,4.49-2.36,8.1Z"/>
    <path class="cls-1" d="M647.35,390.48l.69,4.22c-1.35.28-2.55.42-3.61.42-1.74,0-3.08-.28-4.04-.82-.96-.55-1.63-1.27-2.02-2.17s-.58-2.78-.58-5.64v-16.23h-3.51v-3.72h3.51v-6.99l4.75-2.87v9.86h4.81v3.72h-4.81v16.5c0,1.36.08,2.24.25,2.63.17.39.44.7.82.93.38.23.93.35,1.63.35.53,0,1.23-.06,2.1-.19Z"/>
    <path class="cls-1" d="M654.36,394.75v-38.94h4.78v13.97c2.23-2.58,5.05-3.88,8.45-3.88,2.09,0,3.91.41,5.45,1.24,1.54.82,2.64,1.96,3.31,3.41s1,3.56,1,6.32v17.88h-4.78v-17.88c0-2.39-.52-4.13-1.55-5.22s-2.5-1.63-4.4-1.63c-1.42,0-2.75.37-4,1.1-1.25.74-2.14,1.73-2.67,2.99-.53,1.26-.8,2.99-.8,5.21v15.43h-4.78Z"/>
    <path class="cls-1" d="M706.27,385.67l4.94.61c-.78,2.89-2.22,5.13-4.33,6.72-2.11,1.59-4.8,2.39-8.08,2.39-4.13,0-7.4-1.27-9.82-3.81s-3.63-6.11-3.63-10.69,1.22-8.43,3.67-11.05c2.44-2.62,5.61-3.93,9.51-3.93s6.85,1.28,9.24,3.85c2.39,2.57,3.59,6.18,3.59,10.84,0,.28,0,.71-.03,1.28h-21.04c.18,3.1,1.05,5.47,2.63,7.12,1.58,1.65,3.54,2.47,5.9,2.47,1.75,0,3.25-.46,4.49-1.38,1.24-.92,2.22-2.39,2.95-4.41ZM690.57,377.94h15.75c-.21-2.37-.81-4.15-1.81-5.34-1.52-1.84-3.5-2.76-5.92-2.76-2.2,0-4.04.73-5.54,2.2-1.5,1.47-2.32,3.44-2.48,5.9Z"/>
    <path class="cls-1" d="M738.15,394.75v-24.49h-4.22v-3.72h4.22v-3c0-1.89.17-3.3.5-4.22.46-1.24,1.27-2.24,2.43-3.01s2.79-1.16,4.88-1.16c1.35,0,2.83.16,4.46.48l-.72,4.17c-.99-.18-1.93-.27-2.82-.27-1.45,0-2.48.31-3.08.93-.6.62-.9,1.78-.9,3.48v2.6h5.5v3.72h-5.5v24.49h-4.75Z"/>
    <path class="cls-1" d="M772.95,394.75v-4.14c-2.2,3.19-5.18,4.78-8.95,4.78-1.67,0-3.22-.32-4.66-.96-1.44-.64-2.51-1.44-3.21-2.4-.7-.96-1.19-2.15-1.47-3.55-.19-.94-.29-2.43-.29-4.46v-17.48h4.78v15.65c0,2.5.1,4.18.29,5.05.3,1.26.94,2.25,1.91,2.96.97.72,2.18,1.08,3.61,1.08s2.78-.37,4.04-1.1c1.26-.73,2.15-1.74,2.67-3,.52-1.27.78-3.1.78-5.51v-15.11h4.78v28.21h-4.28Z"/>
    <path class="cls-1" d="M797.49,390.48l.69,4.22c-1.35.28-2.55.42-3.61.42-1.74,0-3.08-.28-4.04-.82-.96-.55-1.63-1.27-2.02-2.17s-.58-2.78-.58-5.64v-16.23h-3.51v-3.72h3.51v-6.99l4.75-2.87v9.86h4.81v3.72h-4.81v16.5c0,1.36.08,2.24.25,2.63.17.39.44.7.82.93.38.23.93.35,1.63.35.53,0,1.23-.06,2.1-.19Z"/>
    <path class="cls-1" d="M823,394.75v-4.14c-2.2,3.19-5.18,4.78-8.95,4.78-1.67,0-3.22-.32-4.66-.96-1.44-.64-2.51-1.44-3.21-2.4-.7-.96-1.19-2.15-1.47-3.55-.19-.94-.29-2.43-.29-4.46v-17.48h4.78v15.65c0,2.5.1,4.18.29,5.05.3,1.26.94,2.25,1.91,2.96.97.72,2.18,1.08,3.61,1.08s2.78-.37,4.04-1.1c1.26-.73,2.15-1.74,2.67-3,.52-1.27.78-3.1.78-5.51v-15.11h4.78v28.21h-4.28Z"/>
    <path class="cls-1" d="M847.54,390.48l.69,4.22c-1.35.28-2.55.42-3.61.42-1.74,0-3.08-.28-4.04-.82-.96-.55-1.63-1.27-2.02-2.17s-.58-2.78-.58-5.64v-16.23h-3.51v-3.72h3.51v-6.99l4.75-2.87v9.86h4.81v3.72h-4.81v16.5c0,1.36.08,2.24.25,2.63.17.39.44.7.82.93.38.23.93.35,1.63.35.53,0,1.23-.06,2.1-.19Z"/>
    <path class="cls-1" d="M873.87,385.67l4.94.61c-.78,2.89-2.22,5.13-4.33,6.72-2.11,1.59-4.8,2.39-8.08,2.39-4.13,0-7.4-1.27-9.82-3.81s-3.63-6.11-3.63-10.69,1.22-8.43,3.67-11.05c2.44-2.62,5.61-3.93,9.51-3.93s6.85,1.28,9.24,3.85c2.39,2.57,3.59,6.18,3.59,10.84,0,.28,0,.71-.03,1.28h-21.04c.18,3.1,1.05,5.47,2.63,7.12,1.58,1.65,3.54,2.47,5.9,2.47,1.75,0,3.25-.46,4.49-1.38,1.24-.92,2.22-2.39,2.95-4.41ZM858.17,377.94h15.75c-.21-2.37-.81-4.15-1.81-5.34-1.52-1.84-3.5-2.76-5.92-2.76-2.2,0-4.04.73-5.54,2.2-1.5,1.47-2.32,3.44-2.48,5.9Z"/>
    <path class="cls-1" d="M883.51,394.75v-5.45h5.45v5.45h-5.45Z"/>
  </g>
  <g>
    <path class="cls-2" d="M190.52,312.45l-5.16-.02v-53.09c0-19.33-15.73-35.06-35.06-35.06s-35.06,15.73-35.06,35.06v52.81l-4.88-.02h-22.96v-106.14l.43-.06c.76-.1,76.24-10.53,136.06-41.16,37.45-19.17,73.26-49.9,96.84-72.44l-21.99-21.99,61.25.08.17,61.34-21.98-21.98c-26.12,40.31-26.03,45.26-24.95,103.1.26,14.05.59,31.54.59,53.37v44.9h-23.29l-3.42.06v-73.96c0-19.33-15.73-35.06-35.06-35.06s-35.06,15.73-35.06,35.06v75.13l-3.28.06h-23.2Z"/>
    <path class="cls-3" d="M299.95,70.85l59.55.08.16,59.63-21.56-21.56c-33.06,50.97-24.78,46.63-24.78,157.26v44.4h-22.79l-2.92.05v-73.45c0-19.64-15.92-35.56-35.56-35.56h0c-19.64,0-35.56,15.92-35.56,35.56v74.64l-2.79.05h-23.19l-4.66-.02v-52.59c0-19.64-15.92-35.56-35.56-35.56h0c-19.64,0-35.56,15.92-35.56,35.56v52.3l-4.37-.02h-22.46v-105.2s75.63-10.18,136.23-41.21c38.61-19.77,75.58-52.05,97.32-72.87l-.09-.09-21.41-21.41M297.54,69.85l1.71,1.71,20.77,20.77c-23.55,22.48-59.15,52.95-96.35,72-59.75,30.59-135.15,41-135.9,41.11l-.87.12v.87s0,105.2,0,105.2v1h23.46l4.37.02h1s0-1,0-1v-52.3c0-19.06,15.5-34.56,34.56-34.56s34.56,15.5,34.56,34.56v53.59h1s4.66.02,4.66.02h23.19l2.81-.05.98-.02v-75.63c0-19.06,15.5-34.56,34.56-34.56s34.56,15.5,34.56,34.56v74.46l1.02-.02,2.92-.05h22.77s1,0,1,0v-45.4c0-21.83-.32-39.32-.59-53.38-1.07-57.45-1.16-62.6,24.54-102.3l20.69,20.69,1.71,1.71v-2.42s-.17-59.63-.17-59.63v-1s-1,0-1,0l-59.55-.08h-2.42Z"/>
  </g>
</svg>